/* XPM */
static const char *UHVyZmcgUGViYw___67e40fa0da3a8[] = {
/* columns rows colors chars-per-pixel */
"32 32 9 1 ",
"  c #25131A",
". c #56587B",
"X c #802954",
"o c #9B4C51",
"O c #BF704D",
"+ c #E1A171",
"@ c #A7ACBA",
"# c #CAE6F5",
"$ c None",
/* pixels */
"$$$$$$$$$$$$$$$$$$$$$$$$$$$$$$$$",
"$$$$$$$$$$$$$$$$$$$$$$$$$$$$$$$$",
"$$$$$$$$$$$$$$$$$$$$$$$$$$$$$$$$",
"$$$$$$$$$$$$$$$$$$$$$$$$$$$$$$$$",
"$$$$$$$$$$$$$$$$$$$$$$$$$$$$$$$$",
"$$$$$$$$$$$$$$$$$$$$$$$$$$$$$$$$",
"$$$$$$$$$$$$$$$$$$$$$$$$$$$$$$$$",
"$$$$$$$$$$$$$$$$$$$$$$$$$$$$$$$$",
"$$$$$$$$$$$$$$$$$$$$$$$$$$$$$$$$",
"$$$$$$$$$$$$$$$$$$$$$$$$$$$$$$$$",
"$$$$$$$$$$$$$$$$$$$$$$$$$$$$$$$$",
"$$$$$$$$$$$$$$$$$$$$$$$$$$$$$$$$",
"$$$$$$$$$$$$$$$$$$$$$$$$$$$$$$$$",
"$$$$$$$$$$$$$$$$$$$$$$$$$$$$$$$$",
"$$$$$$$$$$$$$$$$$$$$$$$$$$$$$$$$",
"$$$$$$$$$$$$$$$$$$$$$$$$$$$$$$$$",
"$$$$$$$$$$$$$$$$$$$$$$$$$$$$$$$$",
"$$$$     $$$$$$$$$$$$$$$$$$$$$$$",
"$$$ @@@@@  $$     $$$$$$$$$$$$$$",
"$$ ###.OOOO  @@@@@    $$$$$$$$$$",
"$ +##.++++XX###.OOOooo  $$$$$$$$",
"$ ##.+++XXX###.XXXoooooo $$$$$$$",
"$ @@.++++++##.XXXXXXoooo $$$$$$$",
"$ @@.OOOOOO@@.++oXXXXXo $$$$$$$$",
"$ @@.OO@@.O@@.OOooXXXX $$$$$$$$$",
" o...o@.@.o...ooXXXXXX    $$$$$$",
" O@@.O@.@.O@@.OOooooooooo $$$$$$",
" O@@.O@.@.O@@.OOoo@.oo@.o $$$$$$",
" O@@.O@@OOO@@.OOoo@.oo@.o $$$$$$",
" O@@.OOOOOO@@.OOoo@.oo@.o $$$$$$",
" O@@.OOOOOO@@.OOooo@...oo $$$$$$",
"                          $$$$$$"
};
