/* XPM */
static char *_0d0f0c5ac9a4671f5ef0d3624eef271ibMNpFO9feNywo2e[] = {
/* columns rows colors chars-per-pixel */
"32 32 26 1 ",
"  c None",
". c #4D3B39",
"X c #705654",
"o c #8F7772",
"O c #B7A099",
"+ c #EEBE93",
"@ c #FFE1AF",
"# c #D7906E",
"$ c #534721",
"% c gray85",
"& c #2E1E22",
"* c #D9D9DD",
"= c #9D704C",
"- c gray95",
"; c #928A8C",
": c white",
"> c #5C2E00",
", c #323234",
"< c #964F00",
"1 c #545456",
"2 c #B7B7BB",
"3 c #979799",
"4 c #767678",
"5 c #354CA1",
"6 c #3560BD",
"7 c #3576DC",
/* pixels */
"                                ",
"          .  ..XXXX...          ",
"         .o..oooooooXX.....     ",
"        .o.XoOOooooooooooXX.    ",
"        .O.oOOooooXXXXXXXX.     ",
"      ..Xo.ooooXXoooooXX....    ",
"     .XooXXXooXooOOoooooooXX.   ",
"    .XooXoXo.XooOoooooooXXX.    ",
"    .o.XoXoOo.XooooXXXXXX...    ",
"   .X.Xo.XOoo.+XooOoooXXXXXX.   ",
"    ..oo.oOoX+++XXoOOoooooX.    ",
"     .oX.ooX++++++XXooooX..     ",
"    .oXX.oX++@@@@@@@XXX..X.     ",
"    .X.#X.+$$$@@@@@$$$+XX#$     ",
"     .$#o#+%&*@@@@@*&%+#o#$     ",
"      .$o=+-&;@@@@@;&-+=o$.     ",
"       .$=+:>>@@@@@>>:+=$.      ",
"        ,,#+<<@@@@@<<+#,,       ",
"       ,11$#+@@@@@@@+#$11,      ",
"      ,12*3$=#+++++#=$2231,     ",
"      ,43224$$$$$$$$$4**24,     ",
"      ,1444,32*****23,334,      ",
"     $X431,43323332334,114,     ",
"     $XX,,,43341114334,323,     ",
"      $$  ,X111434111X,2*3,     ",
"          ,1XXX444XXX1$OOo$     ",
"         ,143563*36534$ooX$     ",
"         ,1347543456431$$$      ",
"          ,1776,,,2231,         ",
"           1**2, ,333,          ",
"           ,2341  ,,,           ",
"           ,2231                "
};
