/* XPM */
static char *_5771ee87e8146e9952d2e4ee12c25aelQetDWUCKY6SFuvd[] = {
/* columns rows colors chars-per-pixel */
"16 16 7 1 ",
"  c None",
". c #25131A",
"X c #373737",
"o c #895A45",
"O c #BF704D",
"+ c #90919E",
"@ c #ADC1CF",
/* pixels */
"      ......    ",
"     .@+++++.   ",
"    .@+......   ",
"    .++.@.@.@.  ",
"    .+@.@.@.@.  ",
"    .+@@@@@@@.  ",
"    ..+++..+.   ",
"   ..X.++++...  ",
"  .+@.XX.@..@.  ",
"  .+@.X.++@X@.. ",
"  .o..XX.@.X.o. ",
"  ...ooO.@.O... ",
"    .XXX..XX.   ",
"   .XXXX.O.XX.  ",
"   .XXXX.o.XX.  ",
"                "
};
