/* XPM */
static const char *R3Z5cl8xNQ___67e40e4be2470[] = {
/* columns rows colors chars-per-pixel */
"32 32 5 1 ",
"  c #1F3736",
". c #3D253B",
"X c #523B40",
"o c #5C6B53",
"O c #8A961F",
/* pixels */
"................................",
"XX..................oo..........",
"XX..ooooo..........ooo..ooooo...",
"...ooooooo....oooo.oo..ooooooo..",
"...oooooooo..oooooo...oooooooo..",
"...oooooooo..oooooo...oooooooo..",
"...oooooooo..oooooo...oooooooo..",
"...oooooooo..oooooo...oooooooo..",
"....ooooooo...oooo....ooooooo...",
".....ooooo......OOO....ooooo....",
".oo.........OOOOOOOO.........oo.",
".ooo.......OOOOOOOOO.........oo.",
"..oo......OOOOOOOOOO ...........",
"....oooo..OOOOOOOOO OO..oooo....",
"...oooooo.OOOOOOO OOOO.oooooo...",
"...oooooo.OOOOOO OOOOO.oooooo...",
"...oooooo.OOOOO OOOOOO.oooooo...",
"...oooooo.OOOO OOOOOOO.oooooo...",
"....oooo..OO OOOOOOOOO..oooo....",
"........... OOOOOOOOOO......oo..",
".oo.........OOOOOOOOO.......ooo.",
".oo.........OOOOOOOO.........oo.",
"....ooooo....OOO......ooooo.....",
"...ooooooo....oooo...ooooooo....",
"..oooooooo...oooooo..oooooooo...",
"..oooooooo...oooooo..oooooooo...",
"..oooooooo...oooooo..oooooooo...",
"..oooooooo...oooooo..oooooooo...",
"..ooooooo..oo.oooo....ooooooo...",
"...ooooo..ooo..........ooooo....",
"..........oo....................",
"................................"
};
