/* XPM */
static const char *UWhhdHJiYSBHdnlyZnJnIFBlYmMgKDEp_67e3f991d762d[] = {
/* columns rows colors chars-per-pixel */
"16 16 3 1 ",
"  c #3D253B",
". c #362030",
"X c white",
/* pixels */
"                ",
"                ",
"                ",
"       .        ",
"       .        ",
"       .        ",
"       .........",
"       .       .",
"       .       .",
"       .        ",
"                ",
"                ",
"                ",
"                ",
"                ",
"                "
};
